<?xml version="1.0" standalone="no"?>
<!DOCTYPE svg PUBLIC "-//W3C//DTD SVG 20010904//EN"
 "http://www.w3.org/TR/2001/REC-SVG-20010904/DTD/svg10.dtd">
<svg
  version="1.0"
  xmlns="http://www.w3.org/2000/svg"
  viewBox="509 332 517 355"
  preserveAspectRatio="xMidYMid meet"
>
  <g
    transform="translate(0.000000,1024.000000) scale(0.100000,-0.100000)"
    fill="#000000"
    stroke="none"
  >
    <path
      d="M5337 6723 c-4 -3 -7 -717 -7 -1585 l0 -1578 360 0 360 0 0 650 0
649 193 -6 192 -5 330 -327 c646 -639 741 -731 753 -731 7 0 331 316 720 703
693 690 1075 1067 1080 1067 1 0 2 -450 2 -1000 l0 -1000 350 0 350 0 0 1520
0 1520 -307 0 -308 0 -300 -292 c-165 -161 -454 -442 -642 -626 l-342 -334 29
65 c71 157 99 393 67 562 -41 220 -160 410 -340 546 -157 119 -328 182 -541
200 -126 10 -1989 13 -1999 2z m2080 -695 c86 -46 134 -126 132 -225 -1 -104
-51 -189 -140 -238 l-54 -30 -652 -3 -653 -3 0 266 0 266 658 -3 657 -3 52
-27z m193 -1163 c-63 -63 -119 -115 -124 -115 -8 0 -138 119 -133 121 83 27
346 107 357 108 8 0 -37 -51 -100 -114z"
    />
  </g>
</svg>
